REM DIRINDEX 1\2\3,1\2\4,1\2\5,1\2\6
REM DIRNAME folder01,folder02,folder03,folder04,folder05,folder06
TITLE ""
FILE "162 162.mp3" MP3
  TRACK 01 AUDIO
    TITLE "0:"
    INDEX 01 00:00:00
  TRACK 02 AUDIO
    TITLE "3:cjc157_5933"
    INDEX 01 00:00:07
  TRACK 03 AUDIO
    TITLE "0:"
    INDEX 01 00:01:58
  TRACK 04 AUDIO
    TITLE "4:cjc157_5934"
    INDEX 01 00:02:24
  TRACK 05 AUDIO
    TITLE "0:"
    INDEX 01 00:06:30
  TRACK 06 AUDIO
    TITLE "5:cjc157_5935"
    INDEX 01 00:06:73
  TRACK 07 AUDIO
    TITLE "0:"
    INDEX 01 00:10:43
  TRACK 08 AUDIO
    TITLE "3:cjc157_5936"
    INDEX 01 00:11:19
  TRACK 09 AUDIO
    TITLE "0:"
    INDEX 01 00:12:36
  TRACK 10 AUDIO
    TITLE "4:cjc157_5937"
    INDEX 01 00:13:08
  TRACK 11 AUDIO
    TITLE "0:"
    INDEX 01 00:14:45
  TRACK 12 AUDIO
    TITLE "5:cjc157_5938"
    INDEX 01 00:15:11
  TRACK 13 AUDIO
    TITLE "0:"
    INDEX 01 00:19:20
  TRACK 14 AUDIO
    TITLE "3:cjc157_5939"
    INDEX 01 00:19:69
  TRACK 15 AUDIO
    TITLE "0:"
    INDEX 01 00:21:25
  TRACK 16 AUDIO
    TITLE "4:cjc157_5940"
    INDEX 01 00:21:70
  TRACK 17 AUDIO
    TITLE "0:"
    INDEX 01 00:23:34
  TRACK 18 AUDIO
    TITLE "5:cjc157_5941"
    INDEX 01 00:24:02
  TRACK 19 AUDIO
    TITLE "0:"
    INDEX 01 00:29:03
  TRACK 20 AUDIO
    TITLE "3:cjc157_5942"
    INDEX 01 00:29:50
  TRACK 21 AUDIO
    TITLE "0:"
    INDEX 01 00:31:12
  TRACK 22 AUDIO
    TITLE "4:cjc157_5943"
    INDEX 01 00:31:55
  TRACK 23 AUDIO
    TITLE "0:"
    INDEX 01 00:33:15
  TRACK 24 AUDIO
    TITLE "5:cjc157_5944"
    INDEX 01 00:33:58
  TRACK 25 AUDIO
    TITLE "0:"
    INDEX 01 00:37:36
  TRACK 26 AUDIO
    TITLE "3:cjc157_5945"
    INDEX 01 00:38:06
  TRACK 27 AUDIO
    TITLE "0:"
    INDEX 01 00:39:31
  TRACK 28 AUDIO
    TITLE "4:cjc157_5946"
    INDEX 01 00:39:74
  TRACK 29 AUDIO
    TITLE "0:"
    INDEX 01 00:41:32
  TRACK 30 AUDIO
    TITLE "5:cjc157_5947"
    INDEX 01 00:42:06
  TRACK 31 AUDIO
    TITLE "0:"
    INDEX 01 00:46:31
  TRACK 32 AUDIO
    TITLE "5:cjc157_5948"
    INDEX 01 00:47:01
  TRACK 33 AUDIO
    TITLE "0:"
    INDEX 01 00:50:46
  TRACK 34 AUDIO
    TITLE "3:cjc157_5949"
    INDEX 01 00:51:15
  TRACK 35 AUDIO
    TITLE "0:"
    INDEX 01 00:52:37
  TRACK 36 AUDIO
    TITLE "4:cjc157_5950"
    INDEX 01 00:53:06
  TRACK 37 AUDIO
    TITLE "0:"
    INDEX 01 00:54:36
  TRACK 38 AUDIO
    TITLE "5:cjc157_5951"
    INDEX 01 00:55:12
  TRACK 39 AUDIO
    TITLE "0:"
    INDEX 01 00:59:18
  TRACK 40 AUDIO
    TITLE "3:cjc157_5952"
    INDEX 01 00:59:65
  TRACK 41 AUDIO
    TITLE "0:"
    INDEX 01 01:01:17
  TRACK 42 AUDIO
    TITLE "4:cjc157_5953"
    INDEX 01 01:01:60
  TRACK 43 AUDIO
    TITLE "0:"
    INDEX 01 01:03:00
  TRACK 44 AUDIO
    TITLE "5:cjc157_5954"
    INDEX 01 01:03:51
  TRACK 45 AUDIO
    TITLE "0:"
    INDEX 01 01:06:49
  TRACK 46 AUDIO
    TITLE "5:cjc157_5955"
    INDEX 01 01:07:21
  TRACK 47 AUDIO
    TITLE "0:"
    INDEX 01 01:10:47
  TRACK 48 AUDIO
    TITLE "3:cjc157_5956"
    INDEX 01 01:11:19
  TRACK 49 AUDIO
    TITLE "0:"
    INDEX 01 01:12:46
  TRACK 50 AUDIO
    TITLE "4:cjc157_5957"
    INDEX 01 01:13:18
  TRACK 51 AUDIO
    TITLE "0:"
    INDEX 01 01:14:43
  TRACK 52 AUDIO
    TITLE "5:cjc157_5958"
    INDEX 01 01:15:13
  TRACK 53 AUDIO
    TITLE "0:"
    INDEX 01 01:18:41
  TRACK 54 AUDIO
    TITLE "3:cjc157_5959"
    INDEX 01 01:19:17
  TRACK 55 AUDIO
    TITLE "0:"
    INDEX 01 01:20:59
  TRACK 56 AUDIO
    TITLE "4:cjc157_5960"
    INDEX 01 01:21:31
  TRACK 57 AUDIO
    TITLE "0:"
    INDEX 01 01:23:22
  TRACK 58 AUDIO
    TITLE "5:cjc157_5961"
    INDEX 01 01:23:65
  TRACK 59 AUDIO
    TITLE "0:"
    INDEX 01 01:28:41
  TRACK 60 AUDIO
    TITLE "3:cjc157_5962"
    INDEX 01 01:29:13
  TRACK 61 AUDIO
    TITLE "0:"
    INDEX 01 01:30:44
  TRACK 62 AUDIO
    TITLE "4:cjc157_5963"
    INDEX 01 01:31:18
  TRACK 63 AUDIO
    TITLE "0:"
    INDEX 01 01:32:47
  TRACK 64 AUDIO
    TITLE "5:cjc157_5964"
    INDEX 01 01:33:17
  TRACK 65 AUDIO
    TITLE "0:"
    INDEX 01 01:35:65
